<?xml version="1.0" ?><!DOCTYPE svg  PUBLIC '-//W3C//DTD SVG 1.1//EN'  'http://www.w3.org/Graphics/SVG/1.1/DTD/svg11.dtd'><svg height="512px" style="enable-background:new 0 0 512 512;" version="1.1" viewBox="0 0 512 512" width="512px" xml:space="preserve" xmlns="http://www.w3.org/2000/svg" xmlns:xlink="http://www.w3.org/1999/xlink"><g id="_x38_2_x2C__Leaf_x2C__Canada_x2C__Plant"><g><path d="M231.673,409.57c6.11,1.084,12.327,1.746,18.327,1.994v-32.803l-38.385-38.537c-1.953-1.951-1.802-5.117,0.15-7.07    c1.953-1.953,5.018-1.953,6.971,0L250,364.619v-68.559l-32.982-33.135c-1.953-1.951-1.802-5.117,0.15-7.07    c1.953-1.953,5.018-1.953,6.971,0L250,281.918V211.06l-22.982-23.133c-1.953-1.952-1.802-5.118,0.15-7.071    c1.953-1.952,5.018-1.952,6.971,0L250,196.917V126.69c0-2.762,2.238-5,5-5c2.761,0,5,2.238,5,5v70.227l16.213-16.062    c1.951-1.952,5.271-1.952,7.222,0c1.953,1.953,1.853,5.119-0.101,7.071L260,211.059v70.859l26.213-26.062    c1.951-1.953,5.271-1.953,7.222,0c1.953,1.953,1.853,5.119-0.101,7.07L260,296.059v68.561l31.615-31.465    c1.951-1.953,5.271-1.953,7.222,0c1.953,1.953,1.853,5.119-0.101,7.07L260,378.76v32.84c7-0.211,13.426-0.887,19.923-2.043    c67.566-12.014,116.808-71.943,116.808-142.502c0-48.714-43.177-102.43-84.932-154.377    c-19.854-24.699-40.329-50.172-56.394-75.296c-15.578,24.398-35.509,49.514-54.839,73.873    c-41.935,52.842-85.296,107.483-85.296,155.8C115.269,337.645,164.107,397.582,231.673,409.57z"/><path d="M392,470H276v-49.674c-0.068,0.01-0.138,0.016-0.206,0.023c-1.454,0.197-2.912,0.369-4.372,0.521    c-0.318,0.033-0.638,0.064-0.956,0.096c-1.409,0.139-2.82,0.262-4.233,0.359c-0.088,0.006-0.177,0.016-0.265,0.021    c-1.542,0.104-3.085,0.18-4.629,0.236c-0.226,0.008-0.45,0.014-0.676,0.021c-1.573,0.051-3.146,0.084-4.717,0.084    c-1.542,0-3.085-0.033-4.629-0.082c-0.213-0.006-0.425-0.014-0.638-0.02c-1.558-0.057-3.116-0.131-4.673-0.236    c-0.04-0.002-0.079-0.006-0.119-0.01c-1.458-0.1-2.913-0.225-4.367-0.367c-0.313-0.031-0.626-0.061-0.939-0.094    c-1.467-0.154-2.932-0.324-4.393-0.521c-0.063-0.01-0.126-0.014-0.189-0.023V470H72c-2.761,0-5,2.238-5,5s2.239,5,5,5h320    c2.762,0,5-2.238,5-5S394.762,470,392,470z"/><path d="M422,470.689c-1.32,0-2.61,0.531-3.54,1.461s-1.46,2.219-1.46,3.539s0.53,2.6,1.46,3.531    c0.93,0.939,2.22,1.469,3.54,1.469c1.319,0,2.6-0.529,3.54-1.469c0.93-0.932,1.46-2.211,1.46-3.531s-0.53-2.6-1.46-3.539    C424.6,471.221,423.319,470.689,422,470.689z"/><path d="M86,66c0-2.762-2.239-5-5-5H41c-2.761,0-5,2.238-5,5c0,2.761,2.239,5,5,5h40C83.761,71,86,68.761,86,66z"/><path d="M51,41.69c1.32,0,2.61-0.53,3.54-1.46c0.93-0.931,1.46-2.221,1.46-3.54c0-1.32-0.53-2.61-1.46-3.54    c-0.93-0.931-2.22-1.46-3.54-1.46c-1.32,0-2.6,0.529-3.54,1.46C46.53,34.089,46,35.379,46,36.69c0,1.31,0.53,2.6,1.46,3.54    C48.4,41.16,49.68,41.69,51,41.69z"/><path d="M81,41h90c2.761,0,5-2.239,5-5c0-2.762-2.239-5-5-5H81c-2.761,0-5,2.238-5,5C76,38.761,78.239,41,81,41z"/><path d="M471,101h-40c-2.762,0-5,2.238-5,5c0,2.761,2.238,5,5,5h40c2.762,0,5-2.239,5-5C476,103.238,473.762,101,471,101z"/><path d="M461,131.69c-1.32,0-2.61,0.529-3.54,1.47c-0.93,0.92-1.46,2.21-1.46,3.53c0,1.319,0.53,2.6,1.46,3.54    c0.939,0.93,2.229,1.46,3.54,1.46c1.319,0,2.6-0.53,3.53-1.46c0.939-0.94,1.47-2.221,1.47-3.54c0-1.32-0.53-2.61-1.47-3.53    C463.609,132.219,462.319,131.69,461,131.69z"/><path d="M431,131h-50c-2.762,0-5,2.238-5,5c0,2.761,2.238,5,5,5h50c2.762,0,5-2.239,5-5C436,133.238,433.762,131,431,131z"/></g></g><g id="Layer_1"/></svg>